<svg width="32" height="25" viewBox="0 0 32 25" fill="none" xmlns="http://www.w3.org/2000/svg">
<path d="M27.0849 2.09611C25.0142 1.12474 22.8088 0.408997 20.4855 0C20.1993 0.511246 19.8626 1.20995 19.6438 1.77232C17.1858 1.39741 14.7448 1.39741 12.3374 1.77232C12.1017 1.20995 11.765 0.511246 11.4788 0C9.15553 0.408997 6.95013 1.12474 4.87941 2.09611C0.704311 8.46965 -0.42364 14.6899 0.131918 20.8078C2.90971 22.9039 5.58649 24.165 8.2296 25C8.88616 24.0968 9.45856 23.1254 9.96361 22.12C9.00401 21.7621 8.09491 21.302 7.23633 20.7737C7.47202 20.6033 7.69087 20.4158 7.90973 20.2454C13.1791 22.7335 18.8862 22.7335 24.0882 20.2454C24.3071 20.4329 24.5259 20.6033 24.7616 20.7737C23.903 21.302 22.9771 21.7451 22.0344 22.12C22.5394 23.1254 23.1118 24.0968 23.7684 25C26.4115 24.165 29.1051 22.9039 31.866 20.8078C32.5226 13.7015 30.7381 7.54941 27.1185 2.09611H27.0849ZM10.6707 17.0586C9.08818 17.0586 7.79188 15.576 7.79188 13.7526C7.79188 11.9291 9.05451 10.4465 10.6707 10.4465C12.2869 10.4465 13.5663 11.9291 13.5495 13.7526C13.5495 15.559 12.2869 17.0586 10.6707 17.0586ZM21.2936 17.0586C19.7111 17.0586 18.4148 15.576 18.4148 13.7526C18.4148 11.9291 19.6774 10.4465 21.2936 10.4465C22.9098 10.4465 24.1892 11.9291 24.1724 13.7526C24.1724 15.559 22.9098 17.0586 21.2936 17.0586Z" fill="#F6F6F6"/>
</svg>
